<svg xmlns="http://www.w3.org/2000/svg" viewBox="0 0 512 512" fill="none">
  <rect width="512" height="512" rx="100" fill="#0b0e14"/>
  <path d="M256 128C185.308 128 128 185.308 128 256C128 326.692 185.308 384 256 384C326.692 384 384 326.692 384 256C384 185.308 326.692 128 256 128ZM256 352C203.056 352 160 308.944 160 256C160 203.056 203.056 160 256 160C308.944 160 352 203.056 352 256C352 308.944 308.944 352 256 352Z" fill="#3b82f6"/>
  <path d="M256 192C220.736 192 192 220.736 192 256C192 291.264 220.736 320 256 320C291.264 320 320 291.264 320 256C320 220.736 291.264 192 256 192Z" fill="#3b82f6"/>
</svg>
